<mxfile host="65bd71144e">
    <diagram id="zs47w7YOmcHElt48giT3" name="Trang-1">
        <mxGraphModel dx="1072" dy="563" grid="1" gridSize="10" guides="1" tooltips="1" connect="1" arrows="1" fold="1" page="1" pageScale="1" pageWidth="827" pageHeight="1169" math="0" shadow="0">
            <root>
                <mxCell id="0"/>
                <mxCell id="1" parent="0"/>
                <mxCell id="Su5TnyIveR3rq7EdfpBd-1" value="Khách hàng" style="shape=umlActor;verticalLabelPosition=bottom;verticalAlign=top;html=1;outlineConnect=0;" parent="1" vertex="1">
                    <mxGeometry x="20" y="185" width="30" height="60" as="geometry"/>
                </mxCell>
                <mxCell id="Su5TnyIveR3rq7EdfpBd-2" value="Xem lịch sử giao dịch" style="ellipse;whiteSpace=wrap;html=1;" parent="1" vertex="1">
                    <mxGeometry x="210" y="60" width="190" height="60" as="geometry"/>
                </mxCell>
                <mxCell id="Su5TnyIveR3rq7EdfpBd-3" value="Xem giỏ hàng" style="ellipse;whiteSpace=wrap;html=1;" parent="1" vertex="1">
                    <mxGeometry x="220" y="140" width="150" height="60" as="geometry"/>
                </mxCell>
                <mxCell id="Su5TnyIveR3rq7EdfpBd-4" value="Đặt mua" style="ellipse;whiteSpace=wrap;html=1;" parent="1" vertex="1">
                    <mxGeometry x="240" y="320" width="120" height="50" as="geometry"/>
                </mxCell>
                <mxCell id="Su5TnyIveR3rq7EdfpBd-9" value="Đăng nhập" style="ellipse;whiteSpace=wrap;html=1;" parent="1" vertex="1">
                    <mxGeometry x="489" y="60" width="140" height="60" as="geometry"/>
                </mxCell>
                <mxCell id="Su5TnyIveR3rq7EdfpBd-10" value="COD" style="ellipse;whiteSpace=wrap;html=1;" parent="1" vertex="1">
                    <mxGeometry x="474" y="315" width="140" height="60" as="geometry"/>
                </mxCell>
                <mxCell id="Su5TnyIveR3rq7EdfpBd-14" value="Ngân hàng" style="shape=umlActor;verticalLabelPosition=bottom;verticalAlign=top;html=1;outlineConnect=0;" parent="1" vertex="1">
                    <mxGeometry x="720" y="440" width="30" height="60" as="geometry"/>
                </mxCell>
                <mxCell id="Su5TnyIveR3rq7EdfpBd-15" value="" style="endArrow=none;html=1;rounded=0;entryX=0.051;entryY=0.777;entryDx=0;entryDy=0;entryPerimeter=0;exitX=1;exitY=0.3333333333333333;exitDx=0;exitDy=0;exitPerimeter=0;" parent="1" source="Su5TnyIveR3rq7EdfpBd-1" target="Su5TnyIveR3rq7EdfpBd-2" edge="1">
                    <mxGeometry width="50" height="50" relative="1" as="geometry">
                        <mxPoint x="110" y="180" as="sourcePoint"/>
                        <mxPoint x="160" y="130" as="targetPoint"/>
                    </mxGeometry>
                </mxCell>
                <mxCell id="Su5TnyIveR3rq7EdfpBd-16" value="" style="endArrow=none;html=1;rounded=0;entryX=0;entryY=0.5;entryDx=0;entryDy=0;" parent="1" source="Su5TnyIveR3rq7EdfpBd-1" target="Su5TnyIveR3rq7EdfpBd-3" edge="1">
                    <mxGeometry width="50" height="50" relative="1" as="geometry">
                        <mxPoint x="100" y="250" as="sourcePoint"/>
                        <mxPoint x="150" y="200" as="targetPoint"/>
                    </mxGeometry>
                </mxCell>
                <mxCell id="Su5TnyIveR3rq7EdfpBd-18" value="" style="endArrow=none;dashed=1;html=1;strokeWidth=2;rounded=0;startArrow=block;startFill=1;entryX=0.952;entryY=0.223;entryDx=0;entryDy=0;entryPerimeter=0;" parent="1" source="Su5TnyIveR3rq7EdfpBd-9" target="Su5TnyIveR3rq7EdfpBd-3" edge="1">
                    <mxGeometry width="50" height="50" relative="1" as="geometry">
                        <mxPoint x="440" y="200" as="sourcePoint"/>
                        <mxPoint x="440" y="270" as="targetPoint"/>
                        <Array as="points">
                            <mxPoint x="480" y="150"/>
                        </Array>
                    </mxGeometry>
                </mxCell>
                <mxCell id="Su5TnyIveR3rq7EdfpBd-22" value="" style="endArrow=none;dashed=1;html=1;strokeWidth=2;rounded=0;startArrow=block;startFill=1;exitX=0;exitY=0.5;exitDx=0;exitDy=0;entryX=1;entryY=0.5;entryDx=0;entryDy=0;" parent="1" source="Su5TnyIveR3rq7EdfpBd-9" target="Su5TnyIveR3rq7EdfpBd-2" edge="1">
                    <mxGeometry width="50" height="50" relative="1" as="geometry">
                        <mxPoint x="259.9999999999999" y="29.999999999999982" as="sourcePoint"/>
                        <mxPoint x="420" y="80" as="targetPoint"/>
                    </mxGeometry>
                </mxCell>
                <mxCell id="Su5TnyIveR3rq7EdfpBd-23" value="" style="endArrow=none;dashed=1;html=1;strokeWidth=2;rounded=0;startArrow=block;startFill=1;exitX=1;exitY=0.5;exitDx=0;exitDy=0;entryX=0;entryY=0.5;entryDx=0;entryDy=0;" parent="1" source="Su5TnyIveR3rq7EdfpBd-4" target="Su5TnyIveR3rq7EdfpBd-10" edge="1">
                    <mxGeometry width="50" height="50" relative="1" as="geometry">
                        <mxPoint x="400" y="350" as="sourcePoint"/>
                        <mxPoint x="470" y="340" as="targetPoint"/>
                    </mxGeometry>
                </mxCell>
                <mxCell id="Su5TnyIveR3rq7EdfpBd-34" value="" style="endArrow=none;html=1;rounded=0;exitX=0;exitY=0.3333333333333333;exitDx=0;exitDy=0;exitPerimeter=0;entryX=1.014;entryY=0.34;entryDx=0;entryDy=0;entryPerimeter=0;" parent="1" source="Su5TnyIveR3rq7EdfpBd-14" target="2" edge="1">
                    <mxGeometry width="50" height="50" relative="1" as="geometry">
                        <mxPoint x="390" y="420" as="sourcePoint"/>
                        <mxPoint x="663.76" y="400.20000000000005" as="targetPoint"/>
                    </mxGeometry>
                </mxCell>
                <mxCell id="Su5TnyIveR3rq7EdfpBd-43" value="&amp;lt;&amp;lt;include&amp;gt;&amp;gt;" style="text;html=1;align=center;verticalAlign=middle;whiteSpace=wrap;rounded=0;" parent="1" vertex="1">
                    <mxGeometry x="400" y="120" width="60" height="30" as="geometry"/>
                </mxCell>
                <mxCell id="Su5TnyIveR3rq7EdfpBd-44" value="&amp;lt;&amp;lt;include&amp;gt;&amp;gt;" style="text;html=1;align=center;verticalAlign=middle;whiteSpace=wrap;rounded=0;" parent="1" vertex="1">
                    <mxGeometry x="414" y="50" width="60" height="30" as="geometry"/>
                </mxCell>
                <mxCell id="Su5TnyIveR3rq7EdfpBd-46" value="" style="endArrow=none;dashed=1;html=1;strokeWidth=2;rounded=0;startArrow=block;startFill=1;entryX=0.583;entryY=0;entryDx=0;entryDy=0;entryPerimeter=0;exitX=0.594;exitY=1.031;exitDx=0;exitDy=0;exitPerimeter=0;" parent="1" source="Su5TnyIveR3rq7EdfpBd-3" target="Su5TnyIveR3rq7EdfpBd-4" edge="1">
                    <mxGeometry width="50" height="50" relative="1" as="geometry">
                        <mxPoint x="390" y="214.58999999999997" as="sourcePoint"/>
                        <mxPoint x="276.0999999999999" y="309.99999999999994" as="targetPoint"/>
                    </mxGeometry>
                </mxCell>
                <mxCell id="Su5TnyIveR3rq7EdfpBd-47" value="&amp;lt;&amp;lt;extend&amp;gt;&amp;gt;" style="text;html=1;align=center;verticalAlign=middle;whiteSpace=wrap;rounded=0;" parent="1" vertex="1">
                    <mxGeometry x="240" y="230" width="60" height="30" as="geometry"/>
                </mxCell>
                <mxCell id="Su5TnyIveR3rq7EdfpBd-50" value="&amp;lt;&amp;lt;extend&amp;gt;&amp;gt;" style="text;html=1;align=center;verticalAlign=middle;whiteSpace=wrap;rounded=0;" parent="1" vertex="1">
                    <mxGeometry x="400" y="345" width="60" height="30" as="geometry"/>
                </mxCell>
                <mxCell id="Su5TnyIveR3rq7EdfpBd-54" style="edgeStyle=orthogonalEdgeStyle;rounded=0;orthogonalLoop=1;jettySize=auto;html=1;exitX=0.5;exitY=1;exitDx=0;exitDy=0;" parent="1" edge="1">
                    <mxGeometry relative="1" as="geometry">
                        <mxPoint x="399" y="300" as="sourcePoint"/>
                        <mxPoint x="399" y="300" as="targetPoint"/>
                    </mxGeometry>
                </mxCell>
                <mxCell id="TXUgpRrwEQOs5Qdk0eYZ-2" value="" style="endArrow=none;html=1;rounded=0;exitX=1;exitY=1;exitDx=0;exitDy=0;exitPerimeter=0;entryX=0;entryY=0.5;entryDx=0;entryDy=0;" parent="1" source="Su5TnyIveR3rq7EdfpBd-1" target="Su5TnyIveR3rq7EdfpBd-4" edge="1">
                    <mxGeometry width="50" height="50" relative="1" as="geometry">
                        <mxPoint x="390" y="320" as="sourcePoint"/>
                        <mxPoint x="440" y="270" as="targetPoint"/>
                    </mxGeometry>
                </mxCell>
                <mxCell id="2" value="Chuyển khoản" style="ellipse;whiteSpace=wrap;html=1;" parent="1" vertex="1">
                    <mxGeometry x="474" y="440" width="140" height="60" as="geometry"/>
                </mxCell>
                <mxCell id="3" value="" style="endArrow=none;dashed=1;html=1;strokeWidth=2;rounded=0;startArrow=block;startFill=1;entryX=0.009;entryY=0.34;entryDx=0;entryDy=0;entryPerimeter=0;exitX=0.99;exitY=0.736;exitDx=0;exitDy=0;exitPerimeter=0;" parent="1" source="Su5TnyIveR3rq7EdfpBd-4" target="2" edge="1">
                    <mxGeometry width="50" height="50" relative="1" as="geometry">
                        <mxPoint x="368" y="345" as="sourcePoint"/>
                        <mxPoint x="450" y="310" as="targetPoint"/>
                    </mxGeometry>
                </mxCell>
                <mxCell id="4" value="&amp;lt;&amp;lt;extend&amp;gt;&amp;gt;" style="text;html=1;align=center;verticalAlign=middle;whiteSpace=wrap;rounded=0;" parent="1" vertex="1">
                    <mxGeometry x="340" y="390" width="60" height="30" as="geometry"/>
                </mxCell>
                <mxCell id="5" value="Áp dụng mã giảm giá" style="ellipse;whiteSpace=wrap;html=1;" parent="1" vertex="1">
                    <mxGeometry x="240" y="450" width="140" height="60" as="geometry"/>
                </mxCell>
                <mxCell id="6" value="" style="endArrow=none;dashed=1;html=1;strokeWidth=2;rounded=0;startArrow=block;startFill=1;entryX=0.431;entryY=-0.007;entryDx=0;entryDy=0;entryPerimeter=0;exitX=0.5;exitY=1;exitDx=0;exitDy=0;" parent="1" source="Su5TnyIveR3rq7EdfpBd-4" target="5" edge="1">
                    <mxGeometry width="50" height="50" relative="1" as="geometry">
                        <mxPoint x="288" y="383.5" as="sourcePoint"/>
                        <mxPoint x="370" y="416.5" as="targetPoint"/>
                    </mxGeometry>
                </mxCell>
                <mxCell id="7" value="&amp;lt;&amp;lt;extend&amp;gt;&amp;gt;" style="text;html=1;align=center;verticalAlign=middle;whiteSpace=wrap;rounded=0;" parent="1" vertex="1">
                    <mxGeometry x="230" y="400" width="60" height="30" as="geometry"/>
                </mxCell>
                <mxCell id="8" value="" style="endArrow=none;dashed=1;html=1;strokeWidth=2;rounded=0;startArrow=block;startFill=1;exitX=0.441;exitY=1.053;exitDx=0;exitDy=0;entryX=0.75;entryY=0;entryDx=0;entryDy=0;entryPerimeter=0;exitPerimeter=0;" parent="1" source="Su5TnyIveR3rq7EdfpBd-9" target="Su5TnyIveR3rq7EdfpBd-4" edge="1">
                    <mxGeometry width="50" height="50" relative="1" as="geometry">
                        <mxPoint x="499" y="100" as="sourcePoint"/>
                        <mxPoint x="410" y="100" as="targetPoint"/>
                        <Array as="points">
                            <mxPoint x="490" y="270"/>
                        </Array>
                    </mxGeometry>
                </mxCell>
                <mxCell id="9" value="&amp;lt;&amp;lt;include&amp;gt;&amp;gt;" style="text;html=1;align=center;verticalAlign=middle;whiteSpace=wrap;rounded=0;" parent="1" vertex="1">
                    <mxGeometry x="420" y="245" width="60" height="30" as="geometry"/>
                </mxCell>
            </root>
        </mxGraphModel>
    </diagram>
</mxfile>